<mxfile host="65bd71144e">
    <diagram id="XtuHynSV_RBo6ZjTXF9L" name="第 1 页">
        <mxGraphModel dx="632" dy="556" grid="1" gridSize="10" guides="1" tooltips="1" connect="1" arrows="1" fold="1" page="1" pageScale="1" pageWidth="827" pageHeight="1169" math="0" shadow="0">
            <root>
                <mxCell id="0"/>
                <mxCell id="1" parent="0"/>
                <mxCell id="2" value="" style="rounded=0;whiteSpace=wrap;html=1;fontSize=14;fillColor=#d80073;fontColor=#ffffff;strokeColor=#A50040;" vertex="1" parent="1">
                    <mxGeometry x="120" y="20" width="330" height="110" as="geometry"/>
                </mxCell>
                <mxCell id="3" value="request-1" style="rounded=0;whiteSpace=wrap;html=1;fontSize=14;fillColor=#fa6800;fontColor=#000000;strokeColor=#C73500;" vertex="1" parent="1">
                    <mxGeometry x="140" y="70" width="80" height="45" as="geometry"/>
                </mxCell>
                <mxCell id="4" value="..." style="rounded=0;whiteSpace=wrap;html=1;fontSize=14;fillColor=#fa6800;fontColor=#000000;strokeColor=#C73500;" vertex="1" parent="1">
                    <mxGeometry x="235" y="70" width="90" height="45" as="geometry"/>
                </mxCell>
                <mxCell id="5" value="request-n" style="rounded=0;whiteSpace=wrap;html=1;fontSize=14;fillColor=#fa6800;fontColor=#000000;strokeColor=#C73500;" vertex="1" parent="1">
                    <mxGeometry x="340" y="70" width="90" height="45" as="geometry"/>
                </mxCell>
                <mxCell id="6" value="HTTP/ 2.0" style="text;html=1;strokeColor=none;fillColor=none;align=center;verticalAlign=middle;whiteSpace=wrap;rounded=0;fontSize=14;" vertex="1" parent="1">
                    <mxGeometry x="230" y="30" width="110" height="30" as="geometry"/>
                </mxCell>
                <mxCell id="7" value="二进制分帧层" style="rounded=0;whiteSpace=wrap;html=1;fontSize=14;fillColor=#d80073;fontColor=#ffffff;strokeColor=#A50040;" vertex="1" parent="1">
                    <mxGeometry x="120" y="140" width="330" height="60" as="geometry"/>
                </mxCell>
                <mxCell id="8" value="TLS" style="rounded=0;whiteSpace=wrap;html=1;fontSize=14;fillColor=#1ba1e2;fontColor=#ffffff;strokeColor=#006EAF;" vertex="1" parent="1">
                    <mxGeometry x="120" y="210" width="330" height="60" as="geometry"/>
                </mxCell>
                <mxCell id="9" value="TCP" style="rounded=0;whiteSpace=wrap;html=1;fontSize=14;fillColor=#1ba1e2;fontColor=#ffffff;strokeColor=#006EAF;" vertex="1" parent="1">
                    <mxGeometry x="120" y="280" width="330" height="60" as="geometry"/>
                </mxCell>
                <mxCell id="10" value="IP" style="rounded=0;whiteSpace=wrap;html=1;fontSize=14;fillColor=#1ba1e2;fontColor=#ffffff;strokeColor=#006EAF;" vertex="1" parent="1">
                    <mxGeometry x="120" y="350" width="330" height="60" as="geometry"/>
                </mxCell>
            </root>
        </mxGraphModel>
    </diagram>
</mxfile>